<svg width="101" height="100" viewBox="0 0 101 100" fill="none" xmlns="http://www.w3.org/2000/svg">
<path d="M85.8008 56.7643C85.8008 76.5388 69.7704 81.25 49.9959 81.25C30.2213 81.25 14.1909 76.5388 14.1909 56.7643C14.1909 36.9898 30.2213 20.9594 49.9959 20.9594C69.7704 20.9594 85.8008 36.9898 85.8008 56.7643Z" fill="#352A2A"/>
<path d="M85.8008 54.6159C85.8008 74.3904 69.7704 79.1016 49.9959 79.1016C30.2213 79.1016 14.1909 74.3904 14.1909 54.6159C14.1909 34.8413 30.2213 18.8109 49.9959 18.8109C69.7704 18.8109 85.8008 34.8413 85.8008 54.6159Z" fill="#504040"/>
<path fill-rule="evenodd" clip-rule="evenodd" d="M76.7876 75.5205C82.3954 71.7927 85.8008 65.8785 85.8008 56.7643C85.8008 36.9898 69.7704 20.9594 49.9959 20.9594C30.2213 20.9594 14.1909 36.9898 14.1909 56.7643C14.1909 65.8785 17.5963 71.7927 23.2041 75.5206C24.9561 62.2868 36.2834 52.0748 49.9959 52.0748C63.7083 52.0748 75.0356 62.2868 76.7876 75.5205ZM75.2217 76.4742C73.907 63.7028 63.1147 53.7415 49.9959 53.7415C36.877 53.7415 26.0847 63.7028 24.7701 76.4743C31.2421 80.0833 40.1554 81.25 49.9959 81.25C59.8363 81.25 68.7496 80.0833 75.2217 76.4742Z" fill="#715334"/>
<path fill-rule="evenodd" clip-rule="evenodd" d="M76.4596 73.5861C82.2623 69.872 85.8008 63.9064 85.8008 54.6159C85.8008 34.8413 69.7704 18.8109 49.9959 18.8109C30.2213 18.8109 14.1909 34.8413 14.1909 54.6159C14.1909 63.9064 17.7294 69.872 23.5322 73.5861C26.0787 61.3047 36.9594 52.0747 49.9959 52.0747C63.0323 52.0747 73.913 61.3046 76.4596 73.5861ZM74.9364 74.4824C72.7648 62.6819 62.4244 53.7414 49.9959 53.7414C37.5673 53.7414 27.2269 62.6819 25.0553 74.4824C31.5027 77.9688 40.2991 79.1016 49.9959 79.1016C59.6926 79.1016 68.489 77.9688 74.9364 74.4824Z" fill="#C1905E"/>
<path d="M77.2214 51.372C77.2214 66.4082 65.0322 57.5333 49.9959 57.5333C34.9597 57.5333 22.7704 66.4082 22.7704 51.372C22.7704 36.3357 34.9597 44.0572 49.9959 44.0572C65.0322 44.0572 77.2214 36.3357 77.2214 51.372Z" fill="#504040"/>
<path d="M35.1175 51.3239C35.1175 54.892 37.54 57.7845 33.9719 57.7845C30.4038 57.7845 31.725 54.892 31.725 51.3239C31.725 47.7558 30.4038 44.8633 33.9719 44.8633C37.54 44.8633 35.1175 47.7558 35.1175 51.3239Z" fill="white"/>
<path d="M65.3683 51.3241C65.3683 47.756 62.9458 44.8635 66.5139 44.8635C70.082 44.8635 68.7608 47.756 68.7608 51.3241C68.7608 54.8922 70.082 57.7847 66.5139 57.7847C62.9458 57.7847 65.3683 54.8922 65.3683 51.3241Z" fill="white"/>
<path d="M13.3755 51.5687C13.3755 53.1507 12.0931 59.7945 10.5111 59.7945C8.92916 59.7945 7.64673 53.1507 7.64673 51.5687C7.64673 49.9867 8.92916 18.75 10.5111 18.75C12.0931 18.75 13.3755 49.9867 13.3755 51.5687Z" fill="#C1905E"/>
<path d="M13.3756 51.5687C13.3756 53.1507 12.0932 59.7945 10.5112 59.7945C12.5306 56.2967 12.2707 53.7075 12.1835 49.0893C12.0963 44.4712 11.7471 24.7512 10.5112 18.75C12.0932 18.75 13.3756 49.9867 13.3756 51.5687Z" fill="#715334"/>
<path d="M92.8391 51.5687C92.8391 53.1507 91.5566 59.7945 89.9747 59.7945C88.3927 59.7945 87.1103 53.1507 87.1103 51.5687C87.1103 49.9867 88.3927 18.75 89.9747 18.75C91.5566 18.75 92.8391 49.9867 92.8391 51.5687Z" fill="#C1905E"/>
<path d="M92.8391 51.5687C92.8391 53.1507 91.5567 59.7945 89.9747 59.7945C91.9941 56.2967 91.7342 53.7075 91.647 49.0893C91.5598 44.4712 91.2106 24.7512 89.9747 18.75C91.5567 18.75 92.8391 49.9867 92.8391 51.5687Z" fill="#EDB881"/>
</svg>
